<?xml version="1.0" encoding="UTF-8"?>
<svg width="120" height="120" viewBox="0 0 120 120" fill="none" xmlns="http://www.w3.org/2000/svg">
  <g clip-path="url(#clip0_1_2)">
    <path d="M60 15C35.2 15 15 35.2 15 60C15 84.8 35.2 105 60 105C84.8 105 105 84.8 105 60C105 35.2 84.8 15 60 15ZM60 95C40.7 95 25 79.3 25 60C25 40.7 40.7 25 60 25C79.3 25 95 40.7 95 60C95 79.3 79.3 95 60 95Z" fill="#3B2B46"/>
    <path d="M80 55H65V40C65 37.2 62.8 35 60 35C57.2 35 55 37.2 55 40V60C55 62.8 57.2 65 60 65H80C82.8 65 85 62.8 85 60C85 57.2 82.8 55 80 55Z" fill="#3B2B46"/>
    <path d="M60 10C31.3 10 8 33.3 8 62C8 90.7 31.3 114 60 114C88.7 114 112 90.7 112 62C112 33.3 88.7 10 60 10ZM60 104C36.8 104 18 85.2 18 62C18 38.8 36.8 20 60 20C83.2 20 102 38.8 102 62C102 85.2 83.2 104 60 104Z" fill="#3B2B46"/>
  </g>
  <defs>
    <clipPath id="clip0_1_2">
      <rect width="120" height="120" fill="white"/>
    </clipPath>
  </defs>
</svg> 