<svg width="376" height="227" viewBox="0 0 376 227" fill="none" xmlns="http://www.w3.org/2000/svg">
<g clip-path="url(#clip0_545_3778)">
<rect width="376" height="227" rx="20" fill="#D9C0EB"/>
<path d="M276.63 61.7092C276.207 67.3139 275.37 76.7808 268.988 85.9028C267.462 88.0868 265.968 89.7466 264.859 90.8822C263.319 86.358 261.632 79.4475 262.092 71.0381C262.961 55.1987 270.896 44.21 274.299 40.0122C275.908 45.502 277.287 52.9734 276.63 61.7092Z" fill="#D0B7E2" stroke="#312B4C" stroke-width="1.83912" stroke-linecap="round" stroke-linejoin="round"/>
<path d="M260.897 68.7869C261.786 73.7885 263.181 82.2642 259.654 91.6807C258.811 93.9348 257.878 95.7228 257.165 96.9654C254.803 93.3497 251.777 87.6779 250.29 80.2126C247.492 66.1507 251.957 54.7516 253.987 50.314C256.626 54.7595 259.509 60.9915 260.897 68.7869Z" fill="#D0B7E2" stroke="#312B4C" stroke-width="1.83912" stroke-linecap="round" stroke-linejoin="round"/>
<path d="M187.424 372.687C215.01 315.587 257.749 251.735 324.88 200.047C332.401 194.256 339.942 188.841 347.469 183.768" stroke="#312B4C" stroke-width="1.83912" stroke-linecap="round" stroke-linejoin="round"/>
<path d="M309.328 211.437C309.328 211.437 285.206 187.344 295.519 183.374C305.831 179.405 309.328 211.437 309.328 211.437Z" fill="#D0B7E2" stroke="#312B4C" stroke-width="1.83912" stroke-linecap="round" stroke-linejoin="round"/>
<path d="M298.102 221.704C298.102 221.704 266.045 196.619 277.522 190.866C289.003 185.113 298.102 221.704 298.102 221.704Z" fill="#D0B7E2" stroke="#312B4C" stroke-width="1.83912" stroke-linecap="round" stroke-linejoin="round"/>
<path d="M298.452 222.225C298.452 222.225 339.651 222.999 334.5 233.817C329.349 244.634 298.452 222.225 298.452 222.225Z" fill="#D0B7E2" stroke="#312B4C" stroke-width="1.83912" stroke-linecap="round" stroke-linejoin="round"/>
<path d="M324.084 200.659C324.084 200.659 307.912 171.142 318.868 169.858C329.826 168.571 324.084 200.659 324.084 200.659Z" fill="#D0B7E2" stroke="#312B4C" stroke-width="1.83912" stroke-linecap="round" stroke-linejoin="round"/>
<path d="M338.157 189.395C338.157 189.395 327.232 166.107 335.646 165.58C344.059 165.053 338.157 189.395 338.157 189.395Z" fill="#D0B7E2" stroke="#312B4C" stroke-width="1.83912" stroke-linecap="round" stroke-linejoin="round"/>
<path d="M345.633 185.091C345.633 185.091 365.138 166.169 368.419 173.327C371.7 180.486 345.633 185.091 345.633 185.091Z" fill="#D0B7E2" stroke="#312B4C" stroke-width="1.83912" stroke-linecap="round" stroke-linejoin="round"/>
<path d="M324.006 201.09C324.006 201.09 353.702 195.173 351.768 203.72C349.835 212.267 324.006 201.09 324.006 201.09Z" fill="#D0B7E2" stroke="#312B4C" stroke-width="1.83912" stroke-linecap="round" stroke-linejoin="round"/>
<path d="M338.715 190.051C338.715 190.051 366.946 183.253 365.464 191.496C363.982 199.74 338.715 190.051 338.715 190.051Z" fill="#D0B7E2" stroke="#312B4C" stroke-width="1.83912" stroke-linecap="round" stroke-linejoin="round"/>
<path d="M309.783 211.905C309.783 211.905 345.717 208.429 342.452 218.322C339.191 228.216 309.783 211.905 309.783 211.905Z" fill="#D0B7E2" stroke="#312B4C" stroke-width="1.83912" stroke-linecap="round" stroke-linejoin="round"/>
<path d="M76.929 223.686C83.8579 230.141 95.449 241.199 100.746 259.204C102.015 263.508 102.631 267.227 102.957 269.88C95.38 267.144 84.5062 262.101 73.9129 252.643C53.9723 234.831 47.8572 212.826 45.9077 203.925C54.832 207.585 66.1196 213.626 76.9244 223.691L76.929 223.686Z" fill="#D0B7E2" stroke="#312B4C" stroke-width="1.83912" stroke-linecap="round" stroke-linejoin="round"/>
<path d="M248.366 93.7133C249.028 92.5822 250.297 73.1749 254.486 74.4899C258.674 75.8095 255.507 117.194 255.507 117.194" fill="#C1A8D3"/>
<path d="M248.366 93.7133C249.028 92.5822 250.297 73.1749 254.486 74.4899C258.674 75.8095 255.507 117.194 255.507 117.194" stroke="#312B4C" stroke-width="1.83912" stroke-linecap="round" stroke-linejoin="round"/>
<path d="M233.361 81.805C232.253 78.1452 230.979 75.3314 229.614 73.4968C226.34 69.1105 221.126 66.1496 221.126 66.1496C221.126 66.1496 215.678 63.0552 211.204 64.0805C210.882 64.1541 210.068 64.3426 209.581 65.0277C209.581 65.0277 209.071 65.7495 209.232 66.9174C209.604 69.6117 215.889 70.6554 219.664 75.0095C221.59 77.2348 222.202 79.9291 223.126 83.5016" fill="#AB92BD"/>
<path d="M233.361 81.805C232.253 78.1452 230.979 75.3314 229.614 73.4968C226.34 69.1105 221.126 66.1496 221.126 66.1496C221.126 66.1496 215.678 63.0552 211.204 64.0805C210.882 64.1541 210.068 64.3426 209.581 65.0277C209.581 65.0277 209.071 65.7495 209.232 66.9174C209.604 69.6117 215.889 70.6554 219.664 75.0095C221.59 77.2348 222.202 79.9291 223.126 83.5016" stroke="#312B4C" stroke-width="1.83912" stroke-linecap="round" stroke-linejoin="round"/>
<path d="M242.89 82.3843C241.699 78.4623 240.338 75.4508 238.871 73.4829C235.363 68.7794 229.777 65.6115 229.777 65.6115C229.777 65.6115 223.942 62.2965 219.147 63.3954C218.802 63.4735 217.928 63.6758 217.409 64.4115C217.409 64.4115 216.862 65.1839 217.032 66.4391C217.427 69.3265 224.163 70.4438 228.209 75.1105C230.273 77.4922 230.926 80.3796 231.919 84.2096" fill="#AB92BD"/>
<path d="M242.89 82.3843C241.699 78.4623 240.338 75.4508 238.871 73.4829C235.363 68.7794 229.777 65.6115 229.777 65.6115C229.777 65.6115 223.942 62.2965 219.147 63.3954C218.802 63.4735 217.928 63.6758 217.409 64.4115C217.409 64.4115 216.862 65.1839 217.032 66.4391C217.427 69.3265 224.163 70.4438 228.209 75.1105C230.273 77.4922 230.926 80.3796 231.919 84.2096" stroke="#312B4C" stroke-width="1.83912" stroke-linecap="round" stroke-linejoin="round"/>
<path d="M236.249 75.1105C232.207 70.4438 225.467 69.3265 225.071 66.4391C224.901 65.1839 225.448 64.4115 225.448 64.4115C225.973 63.6758 226.846 63.4735 227.186 63.3954C231.977 62.2965 237.816 65.6115 237.816 65.6115C237.816 65.6115 243.403 68.784 246.911 73.4829C252.428 80.8762 256.456 103.097 255.435 132.772L250.539 177.972L208.735 165.076C214.464 150.372 220.193 135.668 225.922 120.964C223.936 110.629 221.954 100.293 219.968 89.9568" fill="#AB92BD"/>
<path d="M236.249 75.1105C232.207 70.4438 225.467 69.3265 225.071 66.4391C224.901 65.1839 225.448 64.4115 225.448 64.4115C225.973 63.6758 226.846 63.4735 227.186 63.3954C231.977 62.2965 237.816 65.6115 237.816 65.6115C237.816 65.6115 243.403 68.784 246.911 73.4829C252.428 80.8762 256.456 103.097 255.435 132.772L250.539 177.972L208.735 165.076C214.464 150.372 220.193 135.668 225.922 120.964C223.936 110.629 221.954 100.293 219.968 89.9568" stroke="#312B4C" stroke-width="1.83912" stroke-linecap="round" stroke-linejoin="round"/>
<path d="M225.325 88.4074C225.099 87.3729 224.479 84.6281 222.603 81.7085C221.467 79.9383 220.308 78.7889 219.38 78.021C218.019 76.89 215.563 74.8439 213.03 75.4738C212.391 75.6302 211.908 75.9198 211.614 76.1267C211.614 76.1267 211.494 76.2647 211.379 76.5267C211.379 76.5267 211.15 77.0325 211.177 77.6578C211.209 78.4164 215.674 84.0717 216.878 86.0488C218.134 88.1086 217.784 89.396 218.152 94.0168C218.152 94.0168 218.874 102.987 221.766 111.727C222.86 115.029 224.81 119.732 228.502 125.033" fill="#AB92BD"/>
<path d="M225.325 88.4074C225.099 87.3729 224.479 84.6281 222.603 81.7085C221.467 79.9383 220.308 78.7889 219.38 78.021C218.019 76.89 215.563 74.8439 213.03 75.4738C212.391 75.6302 211.908 75.9198 211.614 76.1267C211.614 76.1267 211.494 76.2647 211.379 76.5267C211.379 76.5267 211.15 77.0325 211.177 77.6578C211.209 78.4164 215.674 84.0717 216.878 86.0488C218.134 88.1086 217.784 89.396 218.152 94.0168C218.152 94.0168 218.874 102.987 221.766 111.727C222.86 115.029 224.81 119.732 228.502 125.033" stroke="#312B4C" stroke-width="1.83912" stroke-linecap="round" stroke-linejoin="round"/>
<path d="M254.188 88.6557L248.657 93.1018C250.735 101.056 252.818 109.015 254.896 116.969C255.241 111.507 255.582 106.049 255.926 100.587C255.655 97.6766 255.388 94.7662 255.117 91.8558C254.809 90.7891 254.496 89.7178 254.188 88.6511V88.6557Z" fill="#C1A8D3"/>
<path d="M122.43 97.3134C121.768 96.1823 120.499 76.775 116.31 78.09C112.122 79.4096 115.29 120.794 115.29 120.794" fill="#AB92BD"/>
<path d="M122.43 97.3134C121.768 96.1823 120.499 76.775 116.31 78.09C112.122 79.4096 115.29 120.794 115.29 120.794" stroke="#312B4C" stroke-width="1.83912" stroke-linecap="round" stroke-linejoin="round"/>
<path d="M215.815 103.86C230.832 109.64 245.848 115.415 260.869 121.194C260.897 104.417 260.929 87.6394 260.956 70.862C248.795 70.1999 236.629 69.5425 224.468 68.8804C224.041 69.0091 213.677 72.2965 210.698 83.5198C208.753 90.8578 210.725 98.7017 215.815 103.86Z" fill="#C1A8D3"/>
<path d="M215.811 103.86H215.815M215.815 103.86C230.832 109.64 245.848 115.415 260.869 121.194C260.897 104.417 260.929 87.6394 260.956 70.862C248.795 70.1999 236.629 69.5425 224.468 68.8804C224.041 69.0091 213.677 72.2965 210.698 83.5198C208.753 90.8578 210.725 98.7017 215.815 103.86Z" stroke="#312B4C" stroke-width="1.83912" stroke-linecap="round" stroke-linejoin="round"/>
<path d="M147.334 77.5151C170.158 86.2969 192.981 95.0787 215.809 103.86C210.724 98.6971 208.747 90.8579 210.692 83.5198C213.676 72.2966 224.035 69.0092 224.462 68.8804C198.779 67.4827 173.1 66.0804 147.422 64.6873C146.916 65.1149 144.957 66.8804 144.502 69.8736C143.817 74.3702 147.16 77.368 147.33 77.5151H147.334Z" fill="#6C537E" stroke="#312B4C" stroke-width="1.83912" stroke-linecap="round" stroke-linejoin="round"/>
<path d="M180.103 66.5171C179.841 66.5953 173.583 68.5815 171.786 75.3633C170.609 79.7955 171.804 84.5359 174.875 87.6532" stroke="#312B4C" stroke-width="1.83912" stroke-linecap="round" stroke-linejoin="round"/>
<path d="M153.412 65.446C152.856 65.915 150.686 67.8691 150.185 71.1887C149.431 76.1589 153.127 79.4785 153.316 79.6394" stroke="#312B4C" stroke-width="1.83912" stroke-linecap="round" stroke-linejoin="round"/>
<path d="M160.162 107.865C175.178 113.644 190.195 119.419 205.216 125.199C205.243 108.421 205.275 91.644 205.303 74.8667C193.142 74.2046 180.976 73.5471 168.815 72.885C168.387 73.0137 158.024 76.3012 155.045 87.5244C153.1 94.8625 155.072 102.706 160.162 107.865Z" fill="#C1A8D3"/>
<path d="M160.157 107.865H160.162M160.162 107.865C175.178 113.644 190.195 119.419 205.216 125.199C205.243 108.421 205.275 91.644 205.303 74.8667C193.142 74.2046 180.976 73.5471 168.815 72.885C168.387 73.0137 158.024 76.3012 155.045 87.5244C153.1 94.8625 155.072 102.706 160.162 107.865Z" stroke="#312B4C" stroke-width="1.83912" stroke-linecap="round" stroke-linejoin="round"/>
<path d="M91.6835 81.5197C114.507 90.3015 137.33 99.0833 160.158 107.865C155.073 102.702 153.096 94.8625 155.041 87.5245C158.025 76.3012 168.384 73.0138 168.811 72.8851C143.128 71.4874 117.45 70.085 91.7708 68.6919C91.2651 69.1195 89.3064 70.885 88.8512 73.8782C88.1661 78.3749 91.5087 81.3726 91.6789 81.5197H91.6835Z" fill="#6C537E" stroke="#312B4C" stroke-width="1.83912" stroke-linecap="round" stroke-linejoin="round"/>
<path d="M177.813 100.582C177.716 114.481 189.307 125.516 203.703 125.231C218.094 124.946 229.846 113.442 229.947 99.5431C230.044 85.6393 218.453 74.6046 204.057 74.8897C189.666 75.1747 177.914 86.6784 177.813 100.582ZM185.56 100.426C185.629 90.6555 193.887 82.5634 204.002 82.3657C214.117 82.1634 222.264 89.9245 222.195 99.6948C222.126 109.465 213.869 117.548 203.753 117.75C193.634 117.953 185.491 110.196 185.56 100.426Z" fill="#C1A8D3" stroke="#312B4C" stroke-width="1.83912" stroke-miterlimit="10"/>
<path d="M185.561 100.426C185.492 110.196 193.639 117.953 203.754 117.75C213.87 117.548 222.127 109.465 222.196 99.6948C222.265 89.9245 214.118 82.1634 204.003 82.3657C193.883 82.568 185.63 90.6555 185.561 100.426Z" fill="#AB92BD" stroke="#312B4C" stroke-width="1.83912" stroke-miterlimit="10"/>
<path d="M222.201 99.7178C219.273 101.355 212.721 104.527 203.852 104.711C194.982 104.89 188.472 101.984 185.562 100.467C188.49 98.8304 195.042 95.6579 203.911 95.474C212.78 95.2947 219.291 98.2005 222.201 99.7178Z" fill="#F5F4FF" stroke="#312B4C" stroke-width="1.83912" stroke-linejoin="bevel"/>
<path d="M205.443 104.574C208.036 103.672 209.438 100.931 208.576 98.451C207.713 95.9711 204.912 94.6918 202.319 95.5937C199.727 96.4955 198.324 99.2369 199.187 101.717C200.05 104.197 202.851 105.476 205.443 104.574Z" fill="#D0B7E2" stroke="#312B4C" stroke-width="1.83912" stroke-linejoin="bevel"/>
<path d="M204.358 101.456C205.152 101.18 205.582 100.342 205.318 99.5839C205.054 98.8261 204.197 98.4355 203.403 98.7117C202.609 98.9878 202.18 99.8261 202.443 100.584C202.707 101.342 203.564 101.732 204.358 101.456Z" fill="#312B4C" stroke="#312B4C" stroke-width="1.83912" stroke-linejoin="bevel"/>
<path d="M236.06 96.2604C235.963 110.16 247.554 121.194 261.95 120.909C276.341 120.624 288.093 109.12 288.194 95.2213C288.291 81.3176 276.7 70.2828 262.304 70.5679C247.913 70.853 236.161 82.3567 236.06 96.2604ZM243.807 96.1041C243.876 86.3337 252.134 78.2416 262.249 78.0439C272.364 77.8416 280.511 85.6027 280.442 95.373C280.373 105.143 272.116 113.226 262 113.429C251.885 113.631 243.738 105.874 243.807 96.1041Z" fill="#C1A8D3" stroke="#312B4C" stroke-width="1.83912" stroke-miterlimit="10"/>
<path d="M242.906 96.389C242.837 106.159 250.985 113.916 261.1 113.713C271.215 113.511 279.472 105.428 279.541 95.6579C279.61 85.8876 271.463 78.1265 261.348 78.3288C251.228 78.5311 242.975 86.6186 242.906 96.389Z" fill="#AB92BD" stroke="#312B4C" stroke-width="1.83912" stroke-miterlimit="10"/>
<path d="M279.543 95.6765C276.614 97.3133 270.063 100.486 261.193 100.67C252.324 100.849 245.814 97.9432 242.903 96.4259C245.832 94.7891 252.384 91.6166 261.253 91.4327C270.122 91.2534 276.633 94.1592 279.543 95.6765Z" fill="#F5F4FF" stroke="#312B4C" stroke-width="1.83912" stroke-linejoin="bevel"/>
<path d="M262.784 100.529C265.377 99.6276 266.779 96.8862 265.917 94.4063C265.054 91.9264 262.253 90.6472 259.661 91.549C257.068 92.4508 255.666 95.1922 256.528 97.6721C257.391 100.152 260.192 101.431 262.784 100.529Z" fill="#D0B7E2" stroke="#312B4C" stroke-width="1.83912" stroke-linejoin="bevel"/>
<path d="M261.7 97.4115C262.494 97.1354 262.923 96.2971 262.66 95.5393C262.396 94.7814 261.539 94.3909 260.745 94.667C259.951 94.9431 259.521 95.7814 259.785 96.5392C260.049 97.2971 260.906 97.6877 261.7 97.4115Z" fill="#312B4C" stroke="#312B4C" stroke-width="1.83912" stroke-linejoin="bevel"/>
<path d="M124.452 70.522C124.19 70.6001 117.933 72.5864 116.135 79.3681C114.958 83.8004 116.153 88.5407 119.225 91.658" stroke="#312B4C" stroke-width="1.83912" stroke-linecap="round" stroke-linejoin="round"/>
<path d="M97.7616 69.4507C97.2052 69.9197 95.0351 71.8737 94.5339 75.1933C93.7799 80.1635 97.4765 83.4832 97.665 83.6441" stroke="#312B4C" stroke-width="1.83912" stroke-linecap="round" stroke-linejoin="round"/>
<path d="M185.561 100.426C185.492 110.196 193.639 117.953 203.754 117.75C213.87 117.548 222.127 109.465 222.196 99.6948C222.265 89.9245 214.118 82.1634 204.003 82.3657C193.883 82.568 185.63 90.6555 185.561 100.426Z" stroke="#312B4C" stroke-width="1.83912" stroke-miterlimit="10"/>
<path d="M134.547 78.7107C138.589 74.0439 145.329 72.9266 145.725 70.0392C145.895 68.784 145.348 68.0116 145.348 68.0116C144.823 67.2759 143.95 67.0736 143.61 66.9955C138.819 65.8966 132.98 69.2116 132.98 69.2116C132.98 69.2116 127.393 72.3841 123.885 77.083C118.368 84.4763 114.34 106.697 115.361 136.372L120.257 181.573L162.061 168.676C156.332 153.972 150.603 139.268 144.874 124.564C146.86 114.229 148.842 103.893 150.828 93.5569" fill="#AB92BD"/>
<path d="M134.547 78.7107C138.589 74.0439 145.329 72.9266 145.725 70.0392C145.895 68.784 145.348 68.0116 145.348 68.0116C144.823 67.2759 143.95 67.0736 143.61 66.9955C138.819 65.8966 132.98 69.2116 132.98 69.2116C132.98 69.2116 127.393 72.3841 123.885 77.083C118.368 84.4763 114.34 106.697 115.361 136.372L120.257 181.573L162.061 168.676C156.332 153.972 150.603 139.268 144.874 124.564C146.86 114.229 148.842 103.893 150.828 93.5569" stroke="#312B4C" stroke-width="1.83912" stroke-linecap="round" stroke-linejoin="round"/>
<path d="M129.356 86.8718C130.547 82.9499 131.908 79.9383 133.375 77.9705C136.883 73.2669 142.469 70.0991 142.469 70.0991C142.469 70.0991 148.304 66.784 153.099 67.8829C153.444 67.9611 154.318 68.1634 154.837 68.899C154.837 68.899 155.385 69.6715 155.214 70.9267C154.819 73.8141 148.083 74.9313 144.037 79.5981C141.973 81.9798 141.32 84.8672 140.327 88.6971" fill="#AB92BD"/>
<path d="M129.356 86.8718C130.547 82.9499 131.908 79.9383 133.375 77.9705C136.883 73.2669 142.469 70.0991 142.469 70.0991C142.469 70.0991 148.304 66.784 153.099 67.8829C153.444 67.9611 154.318 68.1634 154.837 68.899C154.837 68.899 155.385 69.6715 155.214 70.9267C154.819 73.8141 148.083 74.9313 144.037 79.5981C141.973 81.9798 141.32 84.8672 140.327 88.6971" stroke="#312B4C" stroke-width="1.83912" stroke-linecap="round" stroke-linejoin="round"/>
<path d="M104.159 227.912C103.51 219.91 98.7904 171.782 56.2338 143.881C40.9953 133.892 25.6232 129.587 14.4941 127.609" stroke="#312B4C" stroke-width="1.83912" stroke-linecap="round" stroke-linejoin="round"/>
<path d="M138.411 91.727C139.147 87.8419 140.14 84.8119 141.345 82.7797C144.204 77.952 149.198 74.3657 149.198 74.3657C149.198 74.3657 154.411 70.6231 159.083 71.1794C159.418 71.2208 160.269 71.322 160.839 71.9703C160.839 71.9703 161.437 72.6507 161.4 73.86C161.317 76.6462 155.023 78.3934 151.648 83.2441C149.855 85.8188 149.542 88.3292 149.046 92.2741C148.365 97.6674 149.198 102.095 149.91 104.771" fill="#AB92BD"/>
<path d="M138.411 91.727C139.147 87.8419 140.14 84.8119 141.345 82.7797C144.204 77.952 149.198 74.3657 149.198 74.3657C149.198 74.3657 154.411 70.6231 159.083 71.1794C159.418 71.2208 160.269 71.322 160.839 71.9703C160.839 71.9703 161.437 72.6507 161.4 73.86C161.317 76.6462 155.023 78.3934 151.648 83.2441C149.855 85.8188 149.542 88.3292 149.046 92.2741C148.365 97.6674 149.198 102.095 149.91 104.771" stroke="#312B4C" stroke-width="1.83912" stroke-linecap="round" stroke-linejoin="round"/>
<path d="M91.0873 152.808C93.8846 125.416 84.0476 103.551 78.212 92.8806C75.5771 105.192 73.2179 124.333 77.6502 146.787C79.7921 157.644 83.0505 166.889 86.3313 174.335C88.4242 168.259 90.2507 161.032 91.0899 152.808L91.0873 152.808Z" fill="white" stroke="#312B4C" stroke-width="1.83912" stroke-linecap="round" stroke-linejoin="round"/>
<path d="M78.2139 92.8779C81.533 110.351 84.1563 129.614 85.4603 150.464C85.9737 158.678 86.2513 166.641 86.3331 174.333" fill="white"/>
<path d="M78.2139 92.8779C81.533 110.351 84.1563 129.614 85.4603 150.464C85.9737 158.678 86.2513 166.641 86.3331 174.333" stroke="#312B4C" stroke-width="1.83912" stroke-linecap="round" stroke-linejoin="round"/>
<path d="M145.477 92.0075C145.702 90.973 146.323 88.2282 148.199 85.3086C149.334 83.5384 150.493 82.389 151.422 81.6211C152.783 80.4901 155.238 78.444 157.771 79.0739C158.41 79.2303 158.893 79.5199 159.188 79.7268C159.188 79.7268 159.307 79.8648 159.422 80.1268C159.422 80.1268 159.652 80.6326 159.624 81.2579C159.592 82.0165 155.128 87.6718 153.923 89.6489C152.668 91.7087 153.017 92.9961 152.649 97.6169C152.649 97.6169 151.928 106.587 149.036 115.328C147.941 118.629 145.992 123.332 142.3 128.634" fill="#AB92BD"/>
<path d="M145.477 92.0075C145.702 90.973 146.323 88.2282 148.199 85.3086C149.334 83.5384 150.493 82.389 151.422 81.6211C152.783 80.4901 155.238 78.444 157.771 79.0739C158.41 79.2303 158.893 79.5199 159.188 79.7268C159.188 79.7268 159.307 79.8648 159.422 80.1268C159.422 80.1268 159.652 80.6326 159.624 81.2579C159.592 82.0165 155.128 87.6718 153.923 89.6489C152.668 91.7087 153.017 92.9961 152.649 97.6169C152.649 97.6169 151.928 106.587 149.036 115.328C147.941 118.629 145.992 123.332 142.3 128.634" stroke="#312B4C" stroke-width="1.83912" stroke-linecap="round" stroke-linejoin="round"/>
<path d="M116.614 92.2558L122.145 96.7019C120.067 104.656 117.984 112.615 115.906 120.569C115.561 115.107 115.221 109.649 114.876 104.187C115.147 101.277 115.414 98.3663 115.685 95.4559C115.993 94.3892 116.306 93.3179 116.614 92.2512V92.2558Z" fill="#AB92BD"/>
<path d="M218.86 247.367L323.484 118.902L301.693 101.154L197.069 229.62L218.86 247.367Z" fill="#D0B7E2" stroke="#312B4C" stroke-width="1.83912" stroke-miterlimit="10"/>
<path d="M335.098 83.3748L323.494 118.93C321.349 118.771 314.817 118.002 308.987 112.824C304.097 108.478 302.321 103.361 301.705 101.187C312.526 94.998 323.351 88.8091 334.172 82.6204L335.103 83.379L335.098 83.3748Z" fill="white" stroke="#312B4C" stroke-width="1.83912" stroke-miterlimit="10"/>
<path d="M335.099 83.3757L331.181 95.3782L323.208 88.8851L334.168 82.6171C334.625 82.9881 334.643 83.0047 335.099 83.3757Z" fill="#312B4C"/>
<path d="M300.412 116.699L211.091 226.389" stroke="#312B4C" stroke-width="1.83912" stroke-miterlimit="10"/>
<path d="M308.584 123.356L219.268 233.046" stroke="#312B4C" stroke-width="1.83912" stroke-miterlimit="10"/>
<path d="M51.9402 180.171L112.891 284.518L130.59 274.179L69.6391 169.833L51.9402 180.171Z" fill="#312B4C" stroke="#312B4C" stroke-width="1.83912" stroke-miterlimit="10"/>
<path d="M120.342 269.328L68.3091 180.236" stroke="#312B4C" stroke-width="1.83912" stroke-miterlimit="10"/>
<path d="M113.705 273.208L61.667 184.117" stroke="#312B4C" stroke-width="1.83912" stroke-miterlimit="10"/>
<path d="M50.5158 177.707C46.4467 170.737 47.0996 162.778 51.9825 159.928C56.8607 157.077 64.1207 160.415 68.1897 167.385L50.5158 177.707Z" fill="#C0A7D2" stroke="#312B4C" stroke-width="1.83912" stroke-linejoin="bevel"/>
<path d="M50.2381 177.227L52.4551 181.023L70.1261 170.701L67.9091 166.905L50.2381 177.227Z" fill="#AB92BD" stroke="#312B4C" stroke-width="1.83912" stroke-miterlimit="10"/>
<path d="M196.067 249.105C177.97 202.805 167.699 169.255 161.928 148.381C158.052 134.367 152.448 112.481 161.395 105.902C163.538 104.325 166.673 103.511 169.483 104.224C180.825 107.093 182.996 133.778 184.982 154.841C187.019 176.4 190.389 208.203 196.067 249.105Z" fill="#D0B7E2" stroke="#312B4C" stroke-width="1.83912" stroke-linecap="round" stroke-linejoin="round"/>
<path d="M184.661 227.413C185.553 196.134 187.847 174.165 189.631 160.648C190.831 151.577 192.96 137.516 199.76 135.898C201.388 135.512 203.406 135.811 204.859 136.914C210.726 141.365 205.425 157.361 201.402 170.055C197.282 183.048 191.42 202.309 184.661 227.408V227.413Z" fill="#D0B7E2" stroke="#312B4C" stroke-width="1.83912" stroke-linecap="round" stroke-linejoin="round"/>
<path d="M256.657 137.797C244.077 135.493 231.498 133.19 218.918 130.886C212.003 148.97 205.929 163.278 201.961 172.372C182.779 216.35 170.866 234.673 177.069 256.011C180.467 267.712 186.674 271.23 188.021 271.942C197.791 277.106 210.067 271.082 214.904 268.705C248.215 252.356 255.898 148.96 256.652 137.792L256.657 137.797Z" fill="#312B4C" stroke="#312B4C" stroke-width="1.83912" stroke-linecap="round" stroke-linejoin="round"/>
<path d="M113.688 139.291C126.268 136.988 138.848 134.684 151.427 132.381C158.342 150.464 164.416 164.772 168.384 173.867C187.566 217.845 199.479 236.167 193.276 257.505C189.879 269.207 183.672 272.724 182.324 273.437C172.554 278.6 160.278 272.577 155.441 270.2C122.13 253.85 114.447 150.455 113.693 139.287L113.688 139.291Z" fill="#312B4C" stroke="#312B4C" stroke-width="1.83912" stroke-linecap="round" stroke-linejoin="round"/>
<path d="M118.935 241.781C101.109 193.462 100.93 149.406 103.67 120.201C116.029 136.762 139.358 173.034 143.018 223.767C144.719 247.372 141.694 267.542 138.052 282.54C131.298 270.825 124.641 257.243 118.939 241.781H118.935Z" fill="#D0B7E2" stroke="#312B4C" stroke-width="1.83912" stroke-linecap="round" stroke-linejoin="round"/>
<path d="M103.671 120.206C112.775 156.915 121.317 195.058 129.106 234.599C132.292 250.76 135.267 266.747 138.049 282.545" fill="#D0B7E2"/>
<path d="M103.671 120.206C112.775 156.915 121.317 195.058 129.106 234.599C132.292 250.76 135.267 266.747 138.049 282.545" stroke="#312B4C" stroke-width="1.83912" stroke-linecap="round" stroke-linejoin="round"/>
<path d="M179.927 250.002C185.652 211.89 201.413 182.934 213.735 164.772C215.873 180.087 218.098 212.281 202.213 246.87C194.824 262.963 185.569 275.101 177.776 283.621C177.569 273.506 178.097 262.2 179.932 250.002H179.927Z" fill="#D0B7E2" stroke="#312B4C" stroke-width="1.83912" stroke-linecap="round" stroke-linejoin="round"/>
<path d="M213.734 164.772C206.475 192.125 198.327 220.217 189.187 248.958C185.449 260.705 181.642 272.259 177.771 283.625" fill="#D0B7E2"/>
<path d="M213.734 164.772C206.475 192.125 198.327 220.217 189.187 248.958C185.449 260.705 181.642 272.259 177.771 283.625" stroke="#312B4C" stroke-width="1.83912" stroke-linecap="round" stroke-linejoin="round"/>
<path d="M57.8208 142.778C40.8186 129.241 22.1034 126.453 12.5254 125.781C19.5789 132.782 31.2872 142.509 48.091 149.138C56.2146 152.345 63.7451 154.122 70.0911 155.117C66.9483 151.136 62.9259 146.842 57.8208 142.778Z" fill="#D0B7E2" stroke="#312B4C" stroke-width="1.83912" stroke-linecap="round" stroke-linejoin="round"/>
<path d="M12.5254 125.781C25.5477 131.026 39.4602 137.496 53.8634 145.52C59.5375 148.682 64.944 151.891 70.0911 155.117" fill="#D0B7E2"/>
<path d="M12.5254 125.781C25.5477 131.026 39.4602 137.496 53.8634 145.52C59.5375 148.682 64.944 151.891 70.0911 155.117" stroke="#312B4C" stroke-width="1.83912" stroke-linecap="round" stroke-linejoin="round"/>
<path d="M67.7645 131.921C60.3816 103.288 43.4544 84.3214 34.2441 75.3989C36.3023 88.7111 41.0924 108.847 53.2902 130.152C59.1885 140.452 65.522 148.763 71.2265 155.247C70.9353 148.422 69.9818 140.519 67.7645 131.921Z" fill="#D0B7E2" stroke="#312B4C" stroke-width="1.83912" stroke-linecap="round" stroke-linejoin="round"/>
<path d="M34.2441 75.4016C41.8869 88.2944 49.5537 102.711 56.72 118.611C62.5043 131.447 67.2749 143.72 71.2265 155.25" fill="#D0B7E2"/>
<path d="M34.2441 75.4016C41.8869 88.2944 49.5537 102.711 56.72 118.611C62.5043 131.447 67.2749 143.72 71.2265 155.25" stroke="#312B4C" stroke-width="1.83912" stroke-linecap="round" stroke-linejoin="round"/>
<path d="M232.653 236.409C256.267 196.188 291.601 176.169 310.259 167.433C301.528 186.891 285.583 215.402 257.039 241.642C243.241 254.327 229.531 263.693 217.59 270.585C220.818 260.189 225.558 248.488 232.648 236.409H232.653Z" fill="#D0B7E2" stroke="#312B4C" stroke-width="1.83912" stroke-linecap="round" stroke-linejoin="round"/>
<path d="M310.264 167.433C288.232 187.981 265.353 211.669 242.695 238.846C233.771 249.554 225.417 260.152 217.596 270.58" fill="#D0B7E2"/>
<path d="M310.264 167.433C288.232 187.981 265.353 211.669 242.695 238.846C233.771 249.554 225.417 260.152 217.596 270.58" stroke="#312B4C" stroke-width="1.83912" stroke-linecap="round" stroke-linejoin="round"/>
<path d="M186.113 292.885C172.766 264.581 164.876 243.951 160.356 231.091C157.322 222.456 152.862 208.952 158.2 204.437C159.478 203.357 161.414 202.708 163.207 203.035C170.453 204.35 172.959 221.017 175.111 234.157C177.313 247.611 180.794 267.436 186.113 292.885Z" fill="#6C537E" stroke="#312B4C" stroke-width="1.83912" stroke-linecap="round" stroke-linejoin="round"/>
<path d="M182.781 274.02C176.716 243.321 174.087 221.394 172.831 207.817C171.99 198.704 170.951 184.52 177.227 181.439C178.73 180.699 180.763 180.547 182.427 181.301C189.135 184.34 187.512 201.118 186.399 214.387C185.264 227.969 183.815 248.048 182.786 274.025L182.781 274.02Z" fill="#C1A8D3" stroke="#312B4C" stroke-width="1.83912" stroke-linecap="round" stroke-linejoin="round"/>
<path d="M344.505 28.7754L324.542 56.5967C321.367 53.4718 318.195 50.3435 315.019 47.2186C324.847 41.07 334.678 34.924 344.505 28.7754Z" fill="#F5F4FF" stroke="#312B4C" stroke-width="1.64902" stroke-linecap="round" stroke-linejoin="round"/>
<path d="M302.636 38.8148L312.148 45.0989L344.505 28.7752L302.636 38.8148Z" fill="#F5F4FF" stroke="#312B4C" stroke-width="1.64902" stroke-linecap="round" stroke-linejoin="round"/>
<path d="M310.208 54.608L312.147 45.0959L344.501 28.7726C334.673 34.9213 324.842 41.0672 315.015 47.2159C315.733 47.922 316.448 48.6285 317.165 49.3315C314.847 51.0902 312.525 52.8462 310.207 54.6049L310.208 54.608Z" fill="#6C537E" stroke="#312B4C" stroke-width="1.64902" stroke-linecap="round" stroke-linejoin="round"/>
<path d="M235.13 40.3114C241.34 40.3114 246.375 35.8498 246.375 30.3461C246.375 24.8425 241.34 20.3809 235.13 20.3809L139.706 20.3809C133.495 20.3809 128.461 24.8425 128.461 30.3461C128.461 35.8498 133.495 40.3114 139.706 40.3114L235.13 40.3114Z" fill="#312B4C"/>
<mask id="mask0_545_3778" style="mask-type:luminance" maskUnits="userSpaceOnUse" x="128" y="20" width="119" height="21">
<path d="M235.13 40.3114C241.34 40.3114 246.375 35.8498 246.375 30.3461C246.375 24.8425 241.34 20.3809 235.13 20.3809L139.706 20.3809C133.495 20.3809 128.461 24.8425 128.461 30.3461C128.461 35.8498 133.495 40.3114 139.706 40.3114L235.13 40.3114Z" fill="white"/>
</mask>
<g mask="url(#mask0_545_3778)">
<path d="M219.501 54.4119L219.501 14.8826L193.397 14.8826L193.397 54.4119L219.501 54.4119Z" fill="#8579BC" fill-opacity="0.6"/>
<path d="M195.526 50.1108L195.526 10.5815L170.756 10.5815L170.756 50.1108L195.526 50.1108Z" fill="#C1A8D3"/>
<path d="M172.526 44.9137L172.526 15.7749L149.941 15.7749L149.941 44.9137L172.526 44.9137Z" fill="#D9C0EB"/>
<path d="M150.757 44.9137L150.757 15.7749L123.595 15.7749L123.595 44.9137L150.757 44.9137Z" fill="#F0F0F0"/>
</g>
<path d="M235.13 40.3114C241.34 40.3114 246.375 35.8498 246.375 30.3461C246.375 24.8425 241.34 20.3809 235.13 20.3809L139.706 20.3809C133.495 20.3809 128.461 24.8425 128.461 30.3461C128.461 35.8498 133.495 40.3114 139.706 40.3114L235.13 40.3114Z" stroke="#312B4C" stroke-width="2" stroke-linecap="round" stroke-linejoin="round"/>
</g>
<defs>
<clipPath id="clip0_545_3778">
<rect width="376" height="227" rx="20" fill="white"/>
</clipPath>
</defs>
</svg>
